<?xml version="1.0" ?><svg height="57px" version="1.1" viewBox="0 0 54 57" width="54px" xmlns="http://www.w3.org/2000/svg" xmlns:xlink="http://www.w3.org/1999/xlink"><title/><desc/><defs/><g fill="none" fill-rule="evenodd" id="Page-1" stroke="none" stroke-width="1"><g id="014---Wreath"><path d="M27.06,0 C12.1814488,-5.55111512e-15 0.12,12.0614488 0.12,26.94 C0.12,41.8185512 12.1814488,53.88 27.06,53.88 C41.9385512,53.88 54,41.8185512 54,26.94 C53.9974879,12.0624895 41.9375105,0.00251208349 27.06,0 Z M27.06,44.88 C17.1520116,44.88 9.12,36.8479884 9.12,26.94 C9.12,17.0320116 17.1520116,9 27.06,9 C36.9679884,9 45,17.0320116 45,26.94 C44.9943508,36.8456475 36.9656475,44.8743508 27.06,44.88 L27.06,44.88 Z" fill="#5D9069" id="Shape"/><path d="M31,45 L41.21554,42.95689 C42.3906416,42.7218711 43.6092087,43.0260921 44.5359599,43.7858485 C45.4627111,44.5456049 46.0000019,45.6808471 46,46.87922 L46,52.12078 C46.0000019,53.3191529 45.4627111,54.4543951 44.5359599,55.2141515 C43.6092087,55.9739079 42.3906416,56.2781289 41.21554,56.04311 L31,54 L23,54 L12.78446,56.04311 C11.6093584,56.2781289 10.3907913,55.9739079 9.46404012,55.2141515 C8.53728891,54.4543951 7.99999809,53.3191529 8,52.12078 L8,46.87922 C7.99999809,45.6808471 8.53728891,44.5456049 9.46404012,43.7858485 C10.3907913,43.0260921 11.6093584,42.7218711 12.78446,42.95689 L23,45 L31,45 Z" fill="#D8625E" id="Shape"/><circle cx="4.5" cy="13.5" fill="#F4CD1E" fill-rule="nonzero" id="Oval" r="2.5"/><circle cx="15.5" cy="2.5" fill="#F4CD1E" fill-rule="nonzero" id="Oval" r="2.5"/><circle cx="16.5" cy="12.5" fill="#F4CD1E" fill-rule="nonzero" id="Oval" r="2.5"/><circle cx="5.5" cy="25.5" fill="#ED634C" fill-rule="nonzero" id="Oval" r="2.5"/><circle cx="3" cy="38" fill="#F4CD1E" fill-rule="nonzero" id="Oval" r="3"/><circle cx="12.5" cy="37.5" fill="#F4CD1E" fill-rule="nonzero" id="Oval" r="2.5"/><circle cx="49.5" cy="13.5" fill="#F4CD1E" fill-rule="nonzero" id="Oval" r="2.5"/><circle cx="38.5" cy="2.5" fill="#F4CD1E" fill-rule="nonzero" id="Oval" r="2.5"/><circle cx="37.5" cy="12.5" fill="#F4CD1E" fill-rule="nonzero" id="Oval" r="2.5"/><circle cx="48.5" cy="25.5" fill="#ED634C" fill-rule="nonzero" id="Oval" r="2.5"/><circle cx="51" cy="38" fill="#F4CD1E" fill-rule="nonzero" id="Oval" r="3"/><circle cx="41.5" cy="37.5" fill="#F4CD1E" fill-rule="nonzero" id="Oval" r="2.5"/><circle cx="27" cy="4" fill="#ED634C" fill-rule="nonzero" id="Oval" r="2"/><rect fill="#944143" fill-rule="nonzero" height="15" id="Rectangle-path" rx="3" width="8" x="23" y="42"/><path d="M14.39471,47.3583 L17.80299,48.03991 C18.4989973,48.1790981 19,48.7902116 19,49.5 L19,49.5 C19.0000009,50.2097853 18.4990033,50.8208977 17.803,50.96009 L14.39509,51.64167 C13.8078919,51.7591093 13.1989667,51.6072546 12.7356741,51.2278424 C12.2723815,50.8484303 12.0034743,50.2813866 12.00286,49.68256 L12.00249,49.32156 C12.0018615,48.722009 12.2702383,48.1538009 12.7336962,47.7734477 C13.1971542,47.3930945 13.8068009,47.2407217 14.39471,47.3583 Z" fill="#944143" id="Shape"/><path d="M39.60529,47.3583 L36.19701,48.03991 C35.5010027,48.1790981 35,48.7902116 35,49.5 L35,49.5 C34.9999991,50.2097853 35.5009967,50.8208977 36.197,50.96009 L39.60491,51.64167 C40.1921081,51.7591093 40.8010333,51.6072546 41.2643259,51.2278424 C41.7276185,50.8484303 41.9965257,50.2813866 41.99714,49.68256 L41.99751,49.32156 C41.9981385,48.722009 41.7297617,48.1538009 41.2663038,47.7734477 C40.8028458,47.3930945 40.1931991,47.2407217 39.60529,47.3583 Z" fill="#944143" id="Shape"/></g></g></svg>