<?xml version="1.0" ?><!DOCTYPE svg  PUBLIC '-//W3C//DTD SVG 1.1//EN'  'http://www.w3.org/Graphics/SVG/1.1/DTD/svg11.dtd'><svg enable-background="new 0 0 75 75" height="75px" id="Layer_1" version="1.1" viewBox="0 0 75 75" width="75px" xml:space="preserve" xmlns="http://www.w3.org/2000/svg" xmlns:xlink="http://www.w3.org/1999/xlink"><g><g><g><g><g><path d="M21.939,56.627v-0.242h31.137v0.242c7.254-4.971,12.018-13.307,12.018-22.773       C65.094,18.615,52.75,6.26,37.5,6.26c-15.234,0-27.594,12.355-27.594,27.594C9.906,43.32,14.674,51.656,21.939,56.627z" fill="#AEDCFF"/><path d="M24.357,56.627v-0.205h26.299v0.205c6.125-4.197,10.148-11.238,10.148-19.232       c0-12.869-10.426-23.305-23.305-23.305c-12.865,0-23.305,10.436-23.305,23.305C14.195,45.389,18.223,52.43,24.357,56.627z" fill="#F0F6FC"/><path d="M26.592,56.627v-0.17h21.826v0.17c5.084-3.484,8.424-9.326,8.424-15.963       c0-10.68-8.654-19.342-19.342-19.342c-10.678,0-19.342,8.662-19.342,19.342C18.158,47.301,21.5,53.143,26.592,56.627z" fill="#D9F1FF"/><path d="M28.908,56.627v-0.133H46.1v0.133c4.004-2.744,6.633-7.346,6.633-12.57       c0-8.412-6.814-15.234-15.232-15.234c-8.41,0-15.234,6.822-15.234,15.234C22.266,49.281,24.898,53.883,28.908,56.627z" fill="#97D7FF"/><path d="M37.498,28.822c-8.408,0-15.232,6.822-15.232,15.234c0,5.225,2.633,9.826,6.643,12.57v-0.133h8.59       V28.822z" fill="#AEDCFF"/><polygon fill="none" points="       19.922,25.033 19.539,24.377 19.922,23.721 20.68,23.721 21.053,24.377 20.68,25.033      " stroke="#D9EBFC" stroke-linecap="round" stroke-linejoin="round" stroke-miterlimit="10" stroke-width="1.5"/><polygon fill="none" points="       60.141,34.23 59.76,33.574 60.141,32.918 60.898,32.918 61.273,33.574 60.898,34.23      " stroke="#D9EBFC" stroke-linecap="round" stroke-linejoin="round" stroke-miterlimit="10" stroke-width="1.5"/><polygon fill="none" points="       15.5,33.291 16.154,32.912 16.811,33.291 16.811,34.047 16.154,34.426 15.5,34.047      " stroke="#D9EBFC" stroke-linecap="round" stroke-linejoin="round" stroke-miterlimit="10" stroke-width="1.5"/><polygon fill="none" points="       57.422,26.668 58.078,26.289 58.734,26.668 58.734,27.426 58.078,27.803 57.422,27.426      " stroke="#D9EBFC" stroke-linecap="round" stroke-linejoin="round" stroke-miterlimit="10" stroke-width="1.5"/><circle cx="25.166" cy="16.293" fill="none" r="0.08" stroke="#D9EBFC" stroke-linecap="round" stroke-linejoin="round" stroke-miterlimit="10" stroke-width="1.5"/><circle cx="43.668" cy="11.844" fill="none" r="0.078" stroke="#D9EBFC" stroke-linecap="round" stroke-linejoin="round" stroke-miterlimit="10" stroke-width="1.5"/><path d="       M53.305,20.398c0,0.041-0.037,0.078-0.078,0.078c-0.045,0-0.082-0.037-0.082-0.078s0.037-0.08,0.082-0.08       C53.268,20.318,53.305,20.357,53.305,20.398z" fill="none" stroke="#D9EBFC" stroke-linecap="round" stroke-linejoin="round" stroke-miterlimit="10" stroke-width="1.5"/><circle cx="34.779" cy="11.764" fill="none" r="0.078" stroke="#D9EBFC" stroke-linecap="round" stroke-linejoin="round" stroke-miterlimit="10" stroke-width="1.5"/><circle cx="21.054" cy="18.451" fill="none" r="0.079" stroke="#D9EBFC" stroke-linecap="round" stroke-linejoin="round" stroke-miterlimit="10" stroke-width="1.5"/><circle cx="52.204" cy="23.746" fill="none" r="0.079" stroke="#D9EBFC" stroke-linecap="round" stroke-linejoin="round" stroke-miterlimit="10" stroke-width="1.5"/><path d="       M45.104,17.266c0,0.043-0.037,0.08-0.08,0.08c-0.041,0-0.08-0.037-0.08-0.08c0-0.041,0.039-0.078,0.08-0.078       C45.066,17.188,45.104,17.225,45.104,17.266z" fill="none" stroke="#D9EBFC" stroke-linecap="round" stroke-linejoin="round" stroke-miterlimit="10" stroke-width="1.5"/><circle cx="49.765" cy="14.896" fill="none" r="0.079" stroke="#D9EBFC" stroke-linecap="round" stroke-linejoin="round" stroke-miterlimit="10" stroke-width="1.5"/><circle cx="31.468" cy="15.658" fill="none" r="0.079" stroke="#D9EBFC" stroke-linecap="round" stroke-linejoin="round" stroke-miterlimit="10" stroke-width="1.5"/><path d="       M39.002,14.816c0,0.043-0.037,0.08-0.078,0.08c-0.043,0-0.082-0.037-0.082-0.08s0.039-0.078,0.082-0.078       C38.965,14.738,39.002,14.773,39.002,14.816z" fill="none" stroke="#D9EBFC" stroke-linecap="round" stroke-linejoin="round" stroke-miterlimit="10" stroke-width="1.5"/><polygon fill="#B5B18F" points="21.939,56.385 53.076,56.385 56.258,68.74 18.752,68.74      "/><polygon fill="#969274" points="27.488,56.385 47.525,56.385 49.572,68.74 25.438,68.74      "/></g></g></g><path d="M53.727,60.047c-2.331,0-4.364,1.303-5.41,3.217c-1.045-1.914-3.078-3.217-5.408-3.217    s-4.362,1.303-5.408,3.217c-1.046-1.914-3.078-3.217-5.408-3.217c-2.331,0-4.364,1.303-5.41,3.217    c-1.046-1.914-3.079-3.217-5.41-3.217c-0.414,0-0.75,0.336-0.75,0.75s0.336,0.75,0.75,0.75c2.083,0,3.831,1.383,4.426,3.273    c-0.191,0.227-0.32,0.51-0.32,0.83c0,0.617,0.438,1.111,1.013,1.246c0.09,0.039,0.188,0.061,0.292,0.061s0.202-0.021,0.292-0.061    c0.575-0.135,1.013-0.629,1.013-1.246c0-0.32-0.129-0.604-0.32-0.83c0.595-1.891,2.343-3.273,4.426-3.273    c2.082,0,3.828,1.383,4.424,3.271c-0.193,0.227-0.322,0.512-0.322,0.832c0,0.617,0.438,1.111,1.015,1.246    c0.09,0.039,0.188,0.061,0.292,0.061s0.202-0.021,0.292-0.059c0.576-0.137,1.015-0.631,1.015-1.248    c0-0.32-0.129-0.605-0.322-0.832c0.596-1.889,2.342-3.271,4.424-3.271c2.083,0,3.83,1.385,4.424,3.273    c-0.19,0.229-0.318,0.51-0.318,0.83c0,0.617,0.437,1.109,1.01,1.246c0.091,0.039,0.189,0.061,0.293,0.061s0.202-0.021,0.292-0.059    c0.576-0.137,1.015-0.631,1.015-1.248c0-0.32-0.129-0.605-0.322-0.832c0.596-1.889,2.343-3.271,4.426-3.271    c0.414,0,0.75-0.336,0.75-0.75S54.141,60.047,53.727,60.047z" fill="#6D695A"/></g><g><g><path d="M40.844,43.361h-6.689c-0.986,4.422-7.518,12.215-12.139,12.891v0.133H52.98v-0.133     C48.359,55.576,41.83,47.783,40.844,43.361z" fill="#0CAFAF"/><path d="M39.605,43.361h-4.215c-0.623,4.422-4.738,12.215-7.652,12.891v0.133h19.52v-0.133     C44.344,55.576,40.229,47.783,39.605,43.361z" fill="#10799E"/><path d="M55.225,32.451c0.027-0.172,0.053-0.342,0.053-0.518c0-1.939-1.57-3.51-3.51-3.51     c-1.938,0-3.51,1.57-3.51,3.51c0,0.074,0.02,0.146,0.023,0.221c-2.246,0.043-4.057,1.871-4.057,4.131     c0,2.289,1.854,4.145,4.139,4.145h5.314c2.285,0,4.143-1.855,4.143-4.145C57.82,34.545,56.744,33.064,55.225,32.451z" fill="#FFFFFF"/><path d="M54.422,33.977c0.021-0.139,0.041-0.277,0.041-0.418c0-1.57-1.27-2.84-2.838-2.84s-2.838,1.27-2.838,2.84     c0,0.059,0.014,0.117,0.018,0.178c-1.816,0.033-3.281,1.514-3.281,3.342c0,1.852,1.5,3.352,3.348,3.352h4.299     c1.85,0,3.35-1.5,3.35-3.352C56.52,35.67,55.65,34.473,54.422,33.977z" fill="#F0F6FC"/></g><path d="M39.816,48.715l2.318,2.316l0.582-3.557c-0.928-1.479-1.607-2.92-1.873-4.113h-6.689    c-0.268,1.193-0.945,2.635-1.875,4.113l0.582,3.557l2.32-2.316l2.316,2.316L39.816,48.715z" fill="#FFFFFF"/><path d="M32.861,51.031l2.32-2.316l2.316,2.316l2.318-2.316l2.318,2.316l0.078-0.482    c-1.299-2.432-2.322-5.162-2.607-7.188h-4.215c-0.285,2.027-1.307,4.756-2.607,7.189L32.861,51.031z" fill="#D9F1FF"/><path d="M39.885,31.395c-4.062,0-7.354-3.289-7.354-7.352c0-1.041,0.223-2.027,0.615-2.928    c-3.639,0.443-6.465,3.506-6.465,7.262c0,4.061,3.293,7.354,7.352,7.354c3.023,0,5.607-1.824,6.74-4.424    C40.48,31.342,40.189,31.395,39.885,31.395z" fill="#EAE8C3"/><path d="M32.531,24.043c0-1.041,0.223-2.027,0.615-2.928c-0.41,0.051-0.809,0.139-1.193,0.252    c-0.941,1.227-1.5,2.756-1.5,4.426c0,4.061,3.291,7.354,7.352,7.354c0.709,0,1.391-0.107,2.039-0.295    c0.365-0.477,0.688-0.988,0.93-1.545c-0.293,0.035-0.584,0.088-0.889,0.088C35.822,31.395,32.531,28.105,32.531,24.043z" fill="#F2EFCE"/></g></g></svg>